<svg width="18" height="18" viewBox="0 0 18 18" fill="currentColor" xmlns="http://www.w3.org/2000/svg">
    <path fill-rule="evenodd" clip-rule="evenodd" d="M.708 9.302c0-.215.034-.416.102-.605.066-.188.18-.362.341-.524L8.61.715C8.905.42 9.275.28 9.72.293c.443.013.812.167 1.108.463.295.295.443.672.443 1.128 0 .457-.148.834-.443 1.13l-6.29 6.288 6.33 6.33c.296.295.437.665.424 1.109a1.577 1.577 0 0 1-.464 1.108c-.296.295-.672.443-1.129.443-.457 0-.833-.148-1.129-.444l-7.418-7.417a1.407 1.407 0 0 1-.341-.524 1.771 1.771 0 0 1-.102-.605z" fill="currentColor"/>
</svg>