<svg width="18" height="18" viewBox="0 0 18 18" fill="none" xmlns="http://www.w3.org/2000/svg">
    <path fill-rule="evenodd" clip-rule="evenodd" d="M9 18a1.24 1.24 0 0 1-.915-.37 1.24 1.24 0 0 1-.37-.916v-6.428h-6.43c-.364 0-.67-.124-.916-.37A1.243 1.243 0 0 1 0 9c0-.364.123-.67.369-.917.247-.246.552-.369.917-.369h6.428V1.286c0-.365.124-.67.37-.917C8.332.123 8.637 0 9 0s.67.123.917.369c.246.247.369.552.369.917v6.428h6.428c.364 0 .67.123.916.37.247.246.37.552.37.916s-.123.67-.37.915a1.24 1.24 0 0 1-.916.37h-6.428v6.43c0 .363-.123.669-.37.915-.246.247-.552.37-.916.37z" fill="currentColor"/>
</svg>