<svg width="18" height="18" viewBox="0 0 18 18" fill="currentColor" xmlns="http://www.w3.org/2000/svg">
    <path fill-rule="evenodd" clip-rule="evenodd" d="M11.292 9.282c0 .215-.034.416-.102.605-.066.188-.18.362-.341.524L3.39 17.869c-.296.295-.666.436-1.11.422a1.572 1.572 0 0 1-1.108-.463C.878 17.533.73 17.156.73 16.7c0-.456.148-.833.443-1.128l6.29-6.29-6.33-6.328c-.296-.296-.437-.666-.424-1.11.014-.443.169-.812.464-1.108C1.47.44 1.845.292 2.302.292c.457 0 .833.148 1.129.443l7.418 7.418c.16.161.275.336.341.524.068.188.102.39.102.605z" fill="currentColor"/>
</svg>